<?xml version="1.0" encoding="UTF-8"?>
<svg id="Layer_1" data-name="Layer 1" xmlns="http://www.w3.org/2000/svg" xmlns:xlink="http://www.w3.org/1999/xlink" viewBox="0 0 501.98 547">
  <defs>
    <style>
      .cls-1 {
        fill: url(#radial-gradient);
        stroke-width: 0px;
      }
    </style>
    <radialGradient id="radial-gradient" cx="544.75" cy="-24.76" fx="544.75" fy="-24.76" r="912.07" gradientUnits="userSpaceOnUse">
      <stop offset="0" stop-color="#22b573"/>
      <stop offset=".12" stop-color="#1caa7d"/>
      <stop offset=".33" stop-color="#0f8f9b"/>
      <stop offset=".52" stop-color="#0071bc"/>
      <stop offset=".55" stop-color="#0066ab"/>
      <stop offset=".67" stop-color="#00426e"/>
      <stop offset=".78" stop-color="#00253e"/>
      <stop offset=".87" stop-color="#00111c"/>
      <stop offset=".95" stop-color="#000407"/>
      <stop offset="1" stop-color="#000"/>
    </radialGradient>
  </defs>
  <path class="cls-1" d="M466.48,0H35.5C15.89,0,0,15.89,0,35.5v476c0,19.61,15.89,35.5,35.5,35.5h430.98c19.61,0,35.5-15.89,35.5-35.5V35.5c0-19.61-15.89-35.5-35.5-35.5ZM156.68,480.16h-25.9c-9.16,0-28.52,1.57-58.08,4.71v-7.07c14.13-3.66,24.85-10.33,32.18-20.01,7.58-9.94,12.69-21.32,15.3-34.14,2.88-13.6,4.32-42.38,4.32-86.33v-164.42c0-37.93-5.1-63.97-15.3-78.09-10.21-14.13-22.37-22.76-36.5-25.9v-7.07c15.96,1.05,39.64,2.62,71.03,4.71h12.95v413.61ZM437.26,431.89c-7.07,20.41-12.17,38.07-15.31,52.98-29.82-3.14-56.51-4.71-80.05-4.71h-156.97V66.55h114.2c21.44,0,62-1.57,121.64-4.71-.52,7.85-.78,13.74-.78,17.66,0,5.24.65,17.4,1.96,36.5.79,12.82,1.18,19.75,1.18,20.8v9.81h-6.67c-9.42-22.5-20.15-37.02-32.18-43.56-12.04-6.28-34.67-9.42-67.89-9.42h-62.39c-9.95,0-19.1.66-27.47,1.96-4.71,8.9-7.46,30.09-8.24,63.57l-.79,26.69v63.96h84.76c31.92,0,53.11-2.74,63.58-8.24,10.46-5.49,18.83-18.57,25.11-39.24h8.63c-2.09,23.54-3.14,43.95-3.14,61.22,0,10.98.79,25.37,2.36,43.16.52,5.24,1.18,15.57,1.96,31h-8.63c-2.36-23.01-9.29-38.85-20.8-47.48-11.77-8.63-30.22-12.95-55.33-12.95h-98.5v85.55c0,32.96,1.83,61.87,5.5,86.72,10.98,1.57,22.76,2.36,35.31,2.36h59.65c32.44,0,56.9-3.66,73.38-10.99,17.27-7.59,34.27-24.46,51.02-50.62h7.85c-2.89,12.03-7.2,25.9-12.95,41.59Z"/>
</svg>