<?xml version="1.0" encoding="UTF-8"?>
<svg id="Layer_1" data-name="Layer 1" xmlns="http://www.w3.org/2000/svg" xmlns:xlink="http://www.w3.org/1999/xlink" viewBox="0 0 562 604">
  <defs>
    <style>
      .cls-1, .cls-2, .cls-3, .cls-4, .cls-5, .cls-6 {
        stroke-width: 0px;
      }

      .cls-1, .cls-4 {
        fill: #fff;
      }

      .cls-1, .cls-6 {
        opacity: .4;
      }

      .cls-2 {
        fill: none;
      }

      .cls-3 {
        fill: url(#radial-gradient-2);
        opacity: .85;
      }

      .cls-5 {
        fill: url(#radial-gradient-3);
      }

      .cls-6 {
        fill: url(#radial-gradient);
      }
    </style>
    <radialGradient id="radial-gradient" cx="655.31" cy="11.33" fx="655.31" fy="11.33" r="1150.77" gradientUnits="userSpaceOnUse">
      <stop offset="0" stop-color="#5aa3d4"/>
      <stop offset=".5" stop-color="#7cd3ac"/>
      <stop offset=".6" stop-color="#90d9b8"/>
      <stop offset=".8" stop-color="#c4ebda"/>
      <stop offset="1" stop-color="#fff"/>
    </radialGradient>
    <radialGradient id="radial-gradient-2" cx="694.05" cy="-18.88" fx="694.05" fy="-18.88" r="1264.56" gradientUnits="userSpaceOnUse">
      <stop offset="0" stop-color="#22b573"/>
      <stop offset=".12" stop-color="#1caa7d"/>
      <stop offset=".33" stop-color="#0f8f9b"/>
      <stop offset=".52" stop-color="#0071bc"/>
      <stop offset=".61" stop-color="#005f9f"/>
      <stop offset=".8" stop-color="#035"/>
      <stop offset="1" stop-color="#000"/>
    </radialGradient>
    <radialGradient id="radial-gradient-3" cx="454" cy="102" fx="454" fy="102" r="731.8" xlink:href="#radial-gradient-2"/>
  </defs>
  <rect class="cls-4" x="30" y="59" width="478" height="521" rx="22.82" ry="22.82"/>
  <rect class="cls-6" x="39.65" y="70.38" width="456.81" height="497.78" rx="25.89" ry="25.89"/>
  <path class="cls-3" d="M483.99,46H53.01c-19.61,0-35.5,15.89-35.5,35.5v476c0,19.61,15.89,35.5,35.5,35.5h430.98c19.61,0,35.5-15.89,35.5-35.5V81.5c0-19.61-15.89-35.5-35.5-35.5ZM508.04,550.54c0,16.27-13.2,29.46-29.47,29.46H59.38c-16.27,0-29.46-13.19-29.46-29.46V88.46c0-16.27,13.19-29.46,29.46-29.46h419.19c16.27,0,29.47,13.19,29.47,29.46v462.08Z"/>
  <rect class="cls-6" x="39.65" y="70.38" width="456.81" height="497.78" rx="25.89" ry="25.89"/>
  <rect class="cls-1" x="39.65" y="70.38" width="456.81" height="497.78" rx="25.89" ry="25.89"/>
  <rect class="cls-1" x="53.64" y="83.5" width="430.36" height="470.5" rx="19.13" ry="19.13"/>
  <path class="cls-5" d="M161.24,112.55h12.95v413.61h-25.9c-9.16,0-28.52,1.57-58.08,4.71v-7.06c14.13-3.66,24.85-10.33,32.18-20.01,7.58-9.94,12.69-21.32,15.3-34.14,2.88-13.6,4.32-42.38,4.32-86.33v-164.42c0-37.93-5.1-63.96-15.3-78.09-10.2-14.13-22.37-22.76-36.49-25.9v-7.06c15.95,1.05,39.63,2.62,71.03,4.71ZM359.41,526.16h-156.97V112.55h114.19c21.45,0,62-1.57,121.65-4.71-.53,7.85-.79,13.73-.79,17.66,0,5.24.65,17.4,1.96,36.49.79,12.82,1.18,19.76,1.18,20.8v9.81h-6.67c-9.42-22.5-20.15-37.02-32.18-43.56-12.04-6.28-34.67-9.42-67.89-9.42h-62.39c-9.95,0-19.1.66-27.47,1.96-4.71,8.9-7.46,30.09-8.24,63.57l-.79,26.68v63.96h84.76c31.91,0,53.1-2.75,63.57-8.24,10.46-5.49,18.84-18.57,25.11-39.24h8.63c-2.1,23.54-3.14,43.95-3.14,61.22,0,10.99.79,25.38,2.36,43.17.52,5.24,1.18,15.57,1.96,31h-8.63c-2.35-23.02-9.29-38.85-20.8-47.48-11.77-8.63-30.22-12.95-55.33-12.95h-98.5v85.55c0,32.96,1.83,61.87,5.49,86.72,10.99,1.57,22.76,2.36,35.32,2.36h59.65c32.44,0,56.9-3.66,73.38-10.99,17.27-7.58,34.27-24.46,51.01-50.62h7.85c-2.88,12.04-7.2,25.9-12.95,41.6-7.06,20.4-12.17,38.06-15.3,52.98-29.82-3.14-56.51-4.71-80.05-4.71Z"/>
  <line class="cls-2" y1="604" x2="562"/>
</svg>