<?xml version="1.0" encoding="UTF-8"?>
<svg id="Layer_1" data-name="Layer 1" xmlns="http://www.w3.org/2000/svg" xmlns:xlink="http://www.w3.org/1999/xlink" viewBox="0 0 534.06 565">
  <defs>
    <style>
      .cls-1 {
        fill: url(#radial-gradient-2);
      }

      .cls-1, .cls-2, .cls-3, .cls-4 {
        stroke-width: 0px;
      }

      .cls-2 {
        fill: url(#radial-gradient);
      }

      .cls-3 {
        fill: url(#radial-gradient-3);
      }

      .cls-4 {
        fill: #f2f2f2;
      }
    </style>
    <radialGradient id="radial-gradient" cx="651.56" cy="-48.89" fx="651.56" fy="-48.89" r="1050.47" gradientUnits="userSpaceOnUse">
      <stop offset="0" stop-color="#22b573"/>
      <stop offset=".12" stop-color="#1caa7d"/>
      <stop offset=".33" stop-color="#0f8f9b"/>
      <stop offset=".53" stop-color="#0071bc"/>
      <stop offset=".62" stop-color="#005f9f"/>
      <stop offset=".8" stop-color="#035"/>
      <stop offset="1" stop-color="#000"/>
    </radialGradient>
    <radialGradient id="radial-gradient-2" cx="652.03" fx="652.03" gradientTransform="translate(-17.06 -9.3) scale(1.06 1.03)" xlink:href="#radial-gradient"/>
    <radialGradient id="radial-gradient-3" cx="-81.37" cy="614.83" fx="-81.37" fy="614.83" r="974.43" gradientUnits="userSpaceOnUse">
      <stop offset="0" stop-color="#22b573"/>
      <stop offset=".12" stop-color="#1caa7d"/>
      <stop offset=".33" stop-color="#0f8f9b"/>
      <stop offset=".53" stop-color="#0071bc"/>
      <stop offset=".6" stop-color="#0065a8"/>
      <stop offset=".73" stop-color="#004777"/>
      <stop offset=".91" stop-color="#001828"/>
      <stop offset="1" stop-color="#000"/>
    </radialGradient>
  </defs>
  <rect class="cls-2" x="15.57" y="9" width="501.98" height="547" rx="35.5" ry="35.5"/>
  <rect class="cls-1" width="534.06" height="565" rx="35.5" ry="35.5"/>
  <rect class="cls-3" x="39.9" y="35" width="454.26" height="495" rx="35.5" ry="35.5"/>
  <path class="cls-4" d="M172.84,99.35h11.46v366.02h-22.92c-8.11,0-25.24,1.39-51.4,4.17v-6.25c12.5-3.24,21.99-9.14,28.48-17.71,6.71-8.8,11.23-18.87,13.54-30.21,2.54-12.03,3.82-37.5,3.82-76.4v-145.51c0-33.57-4.51-56.61-13.54-69.11-9.03-12.5-19.79-20.14-32.3-22.92v-6.25c14.12.93,35.07,2.32,62.86,4.17ZM348.21,465.37h-138.91V99.35h101.05c18.98,0,54.87-1.39,107.65-4.17-.47,6.95-.69,12.15-.69,15.63,0,4.63.57,15.4,1.74,32.3.69,11.35,1.04,17.48,1.04,18.41v8.68h-5.9c-8.34-19.91-17.83-32.76-28.48-38.55-10.65-5.56-30.68-8.33-60.08-8.33h-55.22c-8.8,0-16.9.58-24.31,1.74-4.17,7.87-6.6,26.63-7.29,56.26l-.69,23.61v56.6h75.01c28.24,0,47-2.43,56.26-7.29,9.26-4.86,16.67-16.44,22.22-34.73h7.64c-1.86,20.84-2.78,38.89-2.78,54.17,0,9.72.69,22.46,2.08,38.2.46,4.63,1.04,13.78,1.74,27.43h-7.64c-2.08-20.37-8.22-34.38-18.4-42.02-10.42-7.64-26.74-11.46-48.96-11.46h-87.16v75.7c0,29.17,1.62,54.75,4.86,76.75,9.72,1.39,20.14,2.08,31.25,2.08h52.78c28.7,0,50.35-3.24,64.94-9.72,15.28-6.71,30.33-21.64,45.14-44.8h6.95c-2.55,10.65-6.37,22.92-11.46,36.81-6.25,18.06-10.77,33.69-13.54,46.88-26.39-2.78-50.01-4.17-70.84-4.17Z"/>
</svg>