<?xml version="1.0" encoding="UTF-8"?>
<svg id="Layer_1" data-name="Layer 1" xmlns="http://www.w3.org/2000/svg" xmlns:xlink="http://www.w3.org/1999/xlink" viewBox="0 0 355.15 387">
  <defs>
    <style>
      .cls-1 {
        fill: #fff;
      }

      .cls-1, .cls-2 {
        stroke-width: 0px;
      }

      .cls-2 {
        fill: url(#radial-gradient);
      }
    </style>
    <radialGradient id="radial-gradient" cx="385.41" cy="-17.52" fx="385.41" fy="-17.52" r="645.29" gradientUnits="userSpaceOnUse">
      <stop offset="0" stop-color="#22b573"/>
      <stop offset=".12" stop-color="#1caa7d"/>
      <stop offset=".33" stop-color="#0f8f9b"/>
      <stop offset=".52" stop-color="#0071bc"/>
      <stop offset=".55" stop-color="#0066ab"/>
      <stop offset=".67" stop-color="#00426e"/>
      <stop offset=".78" stop-color="#00253e"/>
      <stop offset=".87" stop-color="#00111c"/>
      <stop offset=".95" stop-color="#000407"/>
      <stop offset="1" stop-color="#000"/>
    </radialGradient>
  </defs>
  <rect class="cls-2" width="355.15" height="387" rx="35.5" ry="35.5"/>
  <path class="cls-1" d="M101.69,47.09h9.16v292.62h-18.32c-6.48,0-20.18,1.11-41.09,3.33v-5c9.99-2.59,17.58-7.31,22.77-14.16,5.37-7.03,8.98-15.08,10.83-24.15,2.03-9.62,3.05-29.98,3.05-61.08v-116.33c0-26.84-3.61-45.25-10.83-55.25-7.22-9.99-15.82-16.1-25.82-18.32v-5c11.29.74,28.04,1.85,50.25,3.33ZM241.89,339.71h-111.05V47.09h80.79c15.17,0,43.87-1.11,86.07-3.33-.37,5.55-.56,9.72-.56,12.49,0,3.7.46,12.31,1.39,25.82.56,9.07.83,13.98.83,14.71v6.94h-4.72c-6.66-15.92-14.25-26.19-22.77-30.82-8.52-4.44-24.53-6.66-48.03-6.66h-44.14c-7.04,0-13.51.46-19.43,1.39-3.33,6.29-5.27,21.29-5.83,44.98l-.56,18.88v45.25h59.97c22.58,0,37.57-1.94,44.98-5.83,7.4-3.89,13.33-13.14,17.77-27.76h6.11c-1.48,16.66-2.22,31.09-2.22,43.31,0,7.77.56,17.95,1.67,30.54.37,3.7.83,11.01,1.39,21.93h-6.11c-1.66-16.28-6.57-27.49-14.71-33.59-8.33-6.11-21.38-9.16-39.15-9.16h-69.69v60.52c0,23.32,1.29,43.77,3.89,61.36,7.77,1.11,16.1,1.67,24.99,1.67h42.2c22.95,0,40.26-2.59,51.92-7.77,12.22-5.37,24.24-17.3,36.09-35.81h5.55c-2.04,8.52-5.09,18.32-9.16,29.43-5,14.44-8.61,26.93-10.83,37.48-21.1-2.22-39.98-3.33-56.64-3.33Z"/>
</svg>